<?xml version="1.0" encoding="utf-8"?>
<!-- Generator: Adobe Illustrator 21.0.0, SVG Export Plug-In . SVG Version: 6.00 Build 0)  -->
<svg viewBox="19 17 105 25" version="1.2" baseProfile="tiny" id="Ebene_1" xmlns="http://www.w3.org/2000/svg" xmlns:xlink="http://www.w3.org/1999/xlink"
	 x="0px" y="0px" overflow="scroll" xml:space="preserve">
<path fill="#E30613" d="M40.2295,27.8936l-0.5606-0.9707c-0.1308-0.2188-0.3691-0.3633-0.6406-0.3672l0,0H31.418l1.2285-2.1269l0,0
	c0.1318-0.2354,0.1269-0.5118,0.0058-0.7334l0.001,0.0009l-0.5625-0.9746c-0.0644-0.125-0.1621-0.2324-0.292-0.3076
	c-0.1299-0.0752-0.2724-0.1064-0.4131-0.1006h-1.1201c-0.2549,0.0059-0.499,0.1377-0.6367,0.3721l-1.2295,2.126l-3.8027-6.587v0.002
	c-0.1367-0.2344-0.3789-0.3662-0.6299-0.374l0,0h-1.127c-0.1396-0.0069-0.2822,0.0244-0.413,0.1015
	c-0.1289,0.0723-0.2266,0.1817-0.293,0.3028l-0.5606,0.9726c-0.1211,0.2237-0.1289,0.502,0.0039,0.7373l3.8047,6.5889H20.627
	c-0.2725,0.0039-0.5098,0.1484-0.6416,0.3672l-0.5606,0.9707c-0.0752,0.1172-0.1172,0.2559-0.1191,0.4067
	c0,0.1485,0.0449,0.2891,0.1211,0.4063l0.5615,0.9751h0.001c0.1328,0.2129,0.3671,0.3574,0.6377,0.3594v0.0019h4.7548
	l-3.8027,6.5899c-0.1348,0.2343-0.127,0.5136-0.0049,0.7343h-0.001l0.5606,0.9746c0.0664,0.1211,0.1641,0.2286,0.293,0.3047
	c0.1308,0.0742,0.2734,0.1055,0.413,0.0996h1.127h-0.001c0.252-0.0078,0.4942-0.1406,0.6309-0.373l0,0l3.8027-6.586l1.2295,2.127
	c0.1377,0.2324,0.3818,0.3652,0.6367,0.3711h1.1221c0.1387,0.0078,0.2803-0.0254,0.4111-0.1016
	c0.1299-0.0742,0.2276-0.1797,0.293-0.3066l0.5615-0.9727h-0.001c0.1211-0.2226,0.126-0.5-0.0058-0.7343h0.001l-1.2276-2.127h7.6084
	v-0.0019c0.2696-0.002,0.5049-0.1465,0.6377-0.3594l0.5615-0.9751c0.0762-0.1172,0.1211-0.2578,0.1211-0.4063
	C40.3486,28.1524,40.3037,28.0108,40.2295,27.8936z"/>
<g>
	<path fill="#57514D" d="M40.3662,33.0371h0.6465v2.4708h2.8867v-2.4708h0.6485v5.7012h-0.6485v-2.664h-2.8867v2.664h-0.6465
		V33.0371z"/>
	<path fill="#57514D" d="M45.6533,37.2911V36.25c0-1.0546,0.7676-1.6054,1.6719-1.6054c0.9902,0,1.6865,0.582,1.6865,1.5976v0.9844
		c0,1.0469-0.751,1.6152-1.6631,1.6152C46.3652,38.8418,45.6533,38.3067,45.6533,37.2911z M48.4033,37.25v-1.0625
		c0-0.6074-0.3594-1.039-1.0781-1.039c-0.6641,0-1.0723,0.3906-1.0723,1.0703v1.0547c0,0.6328,0.3848,1.0566,1.0957,1.0566
		C48.0127,38.3301,48.4033,37.9707,48.4033,37.25z"/>
	<path fill="#57514D" d="M49.8701,37.2188v-0.8965c0-1.0625,0.6875-1.6777,1.6621-1.6777c0.9199,0,1.584,0.5195,1.584,1.3906v0.1035
		H52.54v-0.1348c0-0.4492-0.3359-0.8652-0.999-0.8652s-1.0556,0.457-1.0556,1.1289v0.9668c0,0.6485,0.3437,1.0957,1.0634,1.0957
		c0.6631,0,0.9912-0.4082,0.9912-0.8555v-0.1132h0.5762v0.0898c0,0.8633-0.6396,1.3906-1.5674,1.3906
		C50.5498,38.8418,49.8701,38.2579,49.8701,37.2188z"/>
	<path fill="#57514D" d="M54.0615,33.0293h0.5918V35.42h0.0235c0.2724-0.5196,0.7841-0.7832,1.2959-0.7832
		c0.8554,0,1.2871,0.5586,1.2871,1.3261v2.7754h-0.5996v-2.5508c0-0.7129-0.335-1.0312-0.8721-1.0312
		c-0.6074,0-1.1348,0.4551-1.1348,1.2148v2.3672h-0.5918V33.0293z"/>
	<path fill="#57514D" d="M58.1816,38.1934l0.4073-0.3359c0.3203,0.3281,0.7041,0.4961,1.2158,0.4961
		c0.4795,0,0.9756-0.2481,0.9756-0.7188c0-0.4492-0.2793-0.5762-0.8321-0.6797l-0.4628-0.0957
		c-0.6963-0.1367-1.128-0.457-1.128-1.0332c0-0.6953,0.5674-1.1992,1.4395-1.1992c0.6074,0,1.0869,0.1445,1.3994,0.5039
		l-0.4082,0.3125c-0.2559-0.2246-0.5684-0.3516-1.0235-0.3516c-0.4882,0-0.8242,0.2637-0.8242,0.6465
		c0,0.3848,0.3282,0.5117,0.8721,0.625l0.6006,0.127c0.5908,0.1289,0.9824,0.4492,0.9824,1.039c0,0.8731-0.8066,1.3047-1.583,1.3047
		C59.1572,38.834,58.5576,38.6582,58.1816,38.1934z"/>
	<path fill="#57514D" d="M62.2051,37.2188v-0.8965c0-1.0625,0.6885-1.6777,1.6631-1.6777c0.9199,0,1.5839,0.5195,1.5839,1.3906
		v0.1035H64.876v-0.1348c0-0.4492-0.336-0.8652-1-0.8652c-0.6631,0-1.0547,0.457-1.0547,1.1289v0.9668
		c0,0.6485,0.3437,1.0957,1.0625,1.0957c0.6641,0,0.9922-0.4082,0.9922-0.8555v-0.1132h0.5761v0.0898
		c0,0.8633-0.6406,1.3906-1.5683,1.3906C62.8848,38.8418,62.2051,38.2579,62.2051,37.2188z"/>
	<path fill="#57514D" d="M66.3975,33.0293h0.5918V35.42h0.0234c0.2715-0.5196,0.7832-0.7832,1.2949-0.7832
		c0.8555,0,1.2871,0.5586,1.2871,1.3261v2.7754h-0.5996v-2.5508c0-0.7129-0.3359-1.0312-0.8711-1.0312
		c-0.6074,0-1.1347,0.4551-1.1347,1.2148v2.3672h-0.5918V33.0293z"/>
	<path fill="#57514D" d="M70.7646,37.4981v-2.7735h0.5997v2.5489c0,0.7129,0.3437,1.0234,0.8798,1.0234
		c0.5997,0,1.127-0.4551,1.127-1.2148v-2.3575h0.5918v4.0137H73.3867v-0.6972h-0.0156c-0.2793,0.5293-0.7832,0.7929-1.3203,0.7929
		C71.1963,38.834,70.7646,38.2579,70.7646,37.4981z"/>
	<path fill="#57514D" d="M75.1973,37.7539v-4.7246h0.59959v4.7481c0,0.2812,0.15041,0.4961,0.5195,0.4961
		c0.1602,0,0.2949-0.0235,0.4395-0.0391v0.4551c-0.20119,0.0644-0.4473,0.0957-0.6407,0.0957
		C75.3477,38.7852,75.1973,38.2188,75.1973,37.7539z"/>
	<path fill="#57514D" d="M77.4277,37.211v-0.8477c0-1.1035,0.75201-1.7187,1.7188-1.7187c0.8887,0,1.5918,0.5351,1.5918,1.5742
		v0.6308H78.043v0.4161c0,0.6562,0.4492,1.0644,1.1523,1.0644c0.46291,0,0.79881-0.2402,1.0156-0.5117l0.4551,0.2715
		c-0.3594,0.5605-0.9355,0.7519-1.5117,0.7519C78.1719,38.8418,77.4277,38.3145,77.4277,37.211z M80.1465,36.4356v-0.2324
		c0-0.6075-0.3594-1.0645-1.0313-1.0645c-0.6484,0-1.0722,0.4805-1.0722,1.1211v0.1758H80.1465z"/>
	<path fill="#57514D" d="M84.0605,33.0371h2.254c1.0722,0,1.9355,0.6231,1.9355,1.7911c0,0.6797-0.3594,1.3828-1.127,1.6543
		l1.4141,2.2558h-1.1582l-1.3359-2.1347h-0.92v2.1347h-1.0625V33.0371z M86.1875,35.7071c0.6152,0,1.0234-0.295,1.0234-0.8867
		c0-0.6719-0.4472-0.8887-1.039-0.8887H85.123v1.7754H86.1875z"/>
	<path fill="#57514D" d="M89.3398,33.0371h0.9747v2.1114h0.0253c0.2715-0.3926,0.7032-0.584,1.127-0.584
		c0.91991,0,1.4316,0.5742,1.4316,1.5508v2.623h-0.9765v-2.375c0-0.6152-0.26369-0.9433-0.7598-0.9433
		c-0.5351,0-0.8476,0.3281-0.8476,1.0234v2.2949h-0.9747V33.0371z"/>
	<path fill="#57514D" d="M93.8359,37.1621v-0.7988c0-1.1523,0.8633-1.791,1.8789-1.791c0.8868,0,1.7676,0.5195,1.7676,1.6074v0.791
		h-2.6308v0.2247c0,0.5195,0.4238,0.8222,0.9433,0.8222c0.3281,0,0.6719-0.2148,0.8867-0.5273l0.752,0.4316
		c-0.3203,0.6406-0.9668,0.9121-1.6875,0.9121C94.7402,38.834,93.8359,38.2813,93.8359,37.1621z M96.5059,36.2911v-0.1114
		c0-0.5605-0.3907-0.7851-0.7911-0.7851c-0.416,0-0.8632,0.2246-0.8632,0.8398v0.0567H96.5059z"/>
	<path fill="#57514D" d="M98.4844,32.9805h0.9746v1.0391h-0.9746V32.9805z M98.4844,34.6446h0.9746v4.0937h-0.9746V34.6446z"/>
	<path fill="#57514D" d="M100.6367,34.6446h0.9512v0.5039h0.0156c0.2715-0.3926,0.70309-0.584,1.1582-0.584
		c0.9199,0,1.4317,0.5742,1.4317,1.5508v2.623h-0.9746v-2.375c0-0.6152-0.26369-0.9433-0.7598-0.9433
		c-0.5352,0-0.8477,0.3281-0.8477,1.0234v2.2949h-0.9746V34.6446z"/>
	<path fill="#57514D" d="M105.5313,33.0371h1.2968l1.4707,3.5665h0.0157l1.43159-3.5665h1.29491v5.7012h-1.0234v-3.7988h-0.0156
		l-1.295,3.1426h-0.83981l-1.2949-3.127h-0.0176v3.7832h-1.0234V33.0371z"/>
	<path fill="#57514D" d="M112.0039,37.5782c0-0.7911,0.7188-1.2637,1.5117-1.2637h1.08601v-0.375
		c0-0.4316-0.2871-0.6152-0.7832-0.6152c-0.4239,0-0.7344,0.1425-0.7344,0.4062v0.1445h-0.88091v-0.1113
		c0-0.8965,0.8555-1.1992,1.6231-1.1992c0.9121,0,1.7519,0.3027,1.7519,1.3027v1.9903c0,0.1836,0.02351,0.7929,0.0723,0.8808
		h-0.9688c-0.01559-0.0644-0.0312-0.3125-0.039-0.3769H114.627c-0.3614,0.3769-0.67191,0.457-1.1993,0.457
		C112.58009,38.8184,112.0039,38.3536,112.0039,37.5782z M114.6016,37.2266v-0.1992h-0.95901
		c-0.41599,0-0.6875,0.1426-0.6875,0.5019c0,0.3438,0.2793,0.5215,0.73631,0.5215
		C114.47459,38.0508,114.6016,37.6661,114.6016,37.2266z"/>
	<path fill="#57514D" d="M116.7168,32.9805h0.9746v1.0391h-0.9746V32.9805z M116.7168,34.6446h0.9746v4.0937h-0.9746V34.6446z"/>
	<path fill="#57514D" d="M118.8672,34.6446h0.9512v0.5039h0.0175c0.2715-0.3926,0.7032-0.584,1.1582-0.584
		c0.92001,0,1.4317,0.5742,1.4317,1.5508v2.623h-0.9746v-2.375c0-0.6152-0.2657-0.9433-0.7598-0.9433
		c-0.5371,0-0.8476,0.3281-0.8476,1.0234v2.2949h-0.9766V34.6446z"/>
</g>
</svg>
