<?xml version="1.0" encoding="UTF-8" standalone="no"?>
<!-- Generator: Adobe Illustrator 19.2.1, SVG Export Plug-In . SVG Version: 6.00 Build 0)  -->
<svg xmlns:dc="http://purl.org/dc/elements/1.1/"
xmlns:cc="http://creativecommons.org/ns#"
xmlns:rdf="http://www.w3.org/1999/02/22-rdf-syntax-ns#"
xmlns:svg="http://www.w3.org/2000/svg"
xmlns="http://www.w3.org/2000/svg"
xmlns:sodipodi="http://sodipodi.sourceforge.net/DTD/sodipodi-0.dtd"
xmlns:inkscape="http://www.inkscape.org/namespaces/inkscape"
version="1.1" id="Layer_1" x="0px" y="0px" viewBox="0 0 481.42835
353.76627" xml:space="preserve" sodipodi:docname="logo.svg"
width="481.42834" height="353.76627" inkscape:version="0.92.2
(5c3e80d, 2017-08-06)"><metadata id="metadata38"><rdf:RDF><cc:Work
rdf:about=""><dc:format>image/svg+xml</dc:format><dc:type
rdf:resource="http://purl.org/dc/dcmitype/StillImage"/><dc:title/></cc:Work></rdf:RDF></metadata><defs
id="defs36"/><sodipodi:namedview pagecolor="#ffffff"
bordercolor="#666666" borderopacity="1" objecttolerance="10"
gridtolerance="10" guidetolerance="10" inkscape:pageopacity="0"
inkscape:pageshadow="2" inkscape:window-width="1920"
inkscape:window-height="1017" id="namedview34" showgrid="false"
inkscape:zoom="0.78666667" inkscape:cx="-37.707899"
inkscape:cy="-76.575359" inkscape:window-x="1672"
inkscape:window-y="-8" inkscape:window-maximized="1"
inkscape:current-layer="Layer_1"/><style type="text/css" id="style2">
.st0{fill:none;stroke:#FF0413;stroke-miterlimit:10;}
.st1{fill:#FFFFFF;stroke:#000000;stroke-linecap:round;stroke-linejoin:round;}
.st2{fill:none;stroke:#000000;stroke-miterlimit:10;} </style><g
id="g860"
transform="matrix(0.87797015,0,0,0.87797015,-20.770588,-58.380238)"><path
id="path4" d="M 301.2,261.5 C 328,209 324,148.8 292.1,111.9 257.6,72
197,66.8 179.1,67 c -1.3,0 -2.8,0.1 -2.8,0.1 -16.1,0.2 -40.1,0.9
-66,14.8 -8.8,4.7 -28.5,15.7 -42.1,38.3 -6.5,10.9 -9.3,20.7 -11.5,28.1
-2.9,9.9 -7.8,27.1 -6.4,47.2 0.3,4.8 1.2,11.3 0,20.4 -0.2,1.3 -1.1,8
-3.8,16.6 -2.2,6.8 -4.5,11.6 -6.4,15.3 -1.8,3.6 -2.3,4.1 -8.9,15.3
-6.2,10.5 -7.3,12.7 -7,15.9 0.4,3.8 2.6,8.4 6.4,10.2 2.9,1.4 6.1,0.9
10.7,0.1 6.4,-1 7.7,-2.4 8.9,-1.5 3.9,2.8 -7.3,18.5 -1.8,25.6 3.4,4.4
11.6,3.7 11.5,5.1 -0.1,1.4 -7.7,0.7 -8.9,3.8 -1.1,2.6 3.3,5.6 6.4,10.2
6.4,9.7 0.9,16.9 4.5,26.1 4.6,11.9 21.1,18.4 33.1,19.1 14.5,0.8
17.4,-7.9 35.7,-7.7 4.1,0.1 14.5,0.3 25.5,6.4 12.1,6.6 18,16.4
20.4,20.4 13.5,22.7 6.7,46.3 5.9,48.9 -3.4,11.3 -9.5,19.1 -13.3,23.4"
class="st0" inkscape:connector-curvature="0"
style="fill:none;stroke:#ff0413;stroke-miterlimit:10"/><g
id="XMLID_1_"><path id="path6" d="m 203.6,248.6 c 5.1,-2.3 10.2,-5.1
14.9,-8.4 4.8,-3.4 9,-7.1 12.9,-11.2 l -7.7,-10.6 c 5,-5.7 8.9,-12
11.8,-18.7 l 13.1,2.1 c 2,-5.3 3.4,-10.8 4.3,-16.4 0.9,-5.6 1.4,-11.2
1.2,-16.9 L 241,166.4 c -0.6,-7.3 -2.3,-14.5 -5.2,-21.5 l 10.8,-7.6 c
-2.3,-5.1 -5.2,-10 -8.6,-14.7 l -34.7,24.6 c 13.8,18.9 9.4,45.2
-9.7,58.7 -19.1,13.5 -45.9,9.3 -59.8,-9.6 L 99,221 c 3.4,4.7 7.3,8.9
11.4,12.7 l 10.8,-7.6 c 5.8,4.9 12.2,8.8 19.1,11.6 l -2.1,12.8 c 5.4,2
11,3.4 16.6,4.3 5.7,0.9 11.4,1.4 17.2,1.1 l 2.1,-12.8 c 7.4,-0.5
14.7,-2.2 21.8,-5.1 z" class="st1" inkscape:connector-curvature="0"
style="fill:#ffffff;stroke:#000000;stroke-linecap:round;stroke-linejoin:round"/></g><path
id="path9" d="M 225.8,106.1 C 206.1,75.2 153,73.5 107.2,102.3"
class="st2" inkscape:connector-curvature="0"
style="fill:none;stroke:#000000;stroke-miterlimit:10"/><path
id="path11" d="M 107.2,102.3 C 73.3,123.9 64.1,169.6 86.8,204.4"
class="st2" inkscape:connector-curvature="0"
style="fill:none;stroke:#000000;stroke-miterlimit:10"/><path
id="path13" d="m 222.2,119.6 c 4.9,-4.1 6.5,-10.2 3.6,-13.5"
class="st2" inkscape:connector-curvature="0"
style="fill:none;stroke:#000000;stroke-miterlimit:10"/><path
id="path15" d="m 101,205.3 c -5.5,3.2 -11.9,2.8 -14.1,-1" class="st2"
inkscape:connector-curvature="0"
style="fill:none;stroke:#000000;stroke-miterlimit:10"/><line
id="line17" y2="119.6" x2="222.2" y1="205.3" x1="101" class="st2"
style="fill:none;stroke:#000000;stroke-miterlimit:10"/><path
id="path19" d="m 207.9,102.2 c 0.7,6.2 1,14.1 -1.9,15.2 -6,2.3
-19.7,-26 -26.5,-23.8 -7.5,2.4 2.3,39.5 -5.9,42.7 -9.2,3.6 -32.6,-38.8
-38.5,-36.1 -6.2,2.9 16.5,52.5 6.7,58.5 -8.9,5.5 -38.5,-28.6
-43.3,-24.8 -4.9,3.9 24.2,41.3 17.2,48.2 -3.5,3.4 -14.7,-2 -25,-8"
class="st2" inkscape:connector-curvature="0"
style="fill:none;stroke:#000000;stroke-miterlimit:10"/><g
id="g31"><path id="path21" d="M 263.5,445.3 H 208.9 V 274.4 H 224 v
157.4 h 39.4 v 13.5 z" inkscape:connector-curvature="0"/><path
id="path23" d="M 353.1,445.3 H 338 l -6,-38 h -34 l -6,38 h -14.6 v
-0.4 L 307.9,274 h 15 z m -23,-51.4 -15,-92.6 -15.1,92.6 z"
inkscape:connector-curvature="0"/><path id="path25" d="M 440.3,274.4
410.7,445.7 H 396.4 L 366.8,274.4 h 15.1 l 21.2,136 0.7,11.1 c
0.1,-2.5 0.3,-6.3 0.8,-11.1 l 21.2,-136 z"
inkscape:connector-curvature="0"/><path id="path27" d="M 476.9,445.3 H
461.7 V 274.4 h 15.2 z" inkscape:connector-curvature="0"/><path
id="path29" d="m 572,433.2 c 0,3.6 -1.1,6.5 -3.3,8.7 -2.2,2.3 -5.1,3.4
-8.7,3.4 h -43 c -3.6,0 -6.5,-1.1 -8.8,-3.4 -2.3,-2.3 -3.4,-5.2
-3.4,-8.7 V 389.9 H 520 v 42 h 36.9 v -40.7 l -47.2,-57 c -3.3,-3.9
-4.9,-8.3 -4.9,-13 v -34.6 c 0,-3.6 1.1,-6.5 3.4,-8.7 2.3,-2.3
5.2,-3.4 8.8,-3.4 h 43 c 3.6,0 6.5,1.1 8.7,3.4 2.2,2.3 3.3,5.2 3.3,8.7
v 39.7 h -15.2 v -38.4 h -36.9 v 36 l 47.4,57 c 3.1,3.8 4.7,8 4.7,12.8
z" inkscape:connector-curvature="0"/></g></g></svg>
